{"title":"Downton.Abbey.S04E01.1080i.HDTV.H.264.DD2.0-CtrlHD [PublicHD]","uid":8951595,"size":3901075862,"categoryP":"video","categoryS":"hd___tv_shows","magnet":"?xt=urn:btih:32c5e18aed4f1f152d40b59b41e3c31991eaf424&amp;dn=Downton.Abbey.S04E01.1080i.HDTV.H.264.DD2.0-CtrlHD+%5BPublicHD%5D&amp;tr=udp%3A%2F%2Ftracker.openbittorrent.com%3A80&amp;tr=udp%3A%2F%2Fopen.demonii.com%3A1337&amp;tr=udp%3A%2F%2Ftracker.coppersurfer.tk%3A6969&amp;tr=udp%3A%2F%2Fexodus.desync.com%3A6969","seeders":1,"leechers":0,"uploader":"DibyaTPB","files":2,"time":1379898377,"description":"                PublicHD - High-Definition Bittorrent Community\n      \n                           \n    \n              ----------------------------------------------------\n\nSingle glitch at 44:48\n\nGeneral\nID : 1 (0x1)\nComplete name : Downton.Abbey.S04E01.1080i.HDTV.H.264.DD2.0-CtrlHD.ts\nFormat : MPEG-TS\nFile size : 3.63 GiB\nDuration : 1h 7mn\nOverall bit rate mode : Variable\nOverall bit rate : 7 730 Kbps\n\nVideo\nID : 513 (0x201)\nMenu ID : 1 (0x1)\nFormat : AVC\nFormat/Info : Advanced Video Codec\nFormat profile : &lt;a class=&quot;__cf_email__&quot; href=&quot;/cdn-cgi/l/email-protection&quot; data-cfemail=&quot;602d01090e202c544e50&quot;&gt;[email&amp;#160;protected]&lt;/a&gt;&lt;script cf-hash='f9e31' type=&quot;text/javascript&quot;&gt;\n/* &lt;![CDATA[ */!function(){try{var t=&quot;currentScript&quot;in document?document.currentScript:function(){for(var t=document.getElementsByTagName(&quot;script&quot;),e=t.length;e--;)if(t[e].getAttribute(&quot;cf-hash&quot;))return t[e]}();if(t&amp;&amp;t.previousSibling){var e,r,n,i,c=t.previousSibling,a=c.getAttribute(&quot;data-cfemail&quot;);if(a){for(e=&quot;&quot;,r=parseInt(a.substr(0,2),16),n=2;a.length-n;n+=2)i=parseInt(a.substr(n,2),16)^r,e+=String.fromCharCode(i);e=document.createTextNode(e),c.parentNode.replaceChild(e,c)}}}catch(u){}}();/* ]]&gt; */&lt;/script&gt;\nFormat settings, CABAC : Yes\nFormat settings, ReFrames : 4 frames\nFormat settings, GOP : M=4, N=12\nCodec ID : 27\nDuration : 1h 7mn\nBit rate : 6 960 Kbps\nWidth : 1 920 pixels\nHeight : 1 080 pixels\nDisplay aspect ratio : 16:9\nFrame rate : 25.000 fps\nColor space : YUV\nChroma subsampling : 4:2:0\nBit depth : 8 bits\nScan type : Interlaced\nScan order : Top Field First\nBits/(Pixel*Frame) : 0.134\nStream size : 3.27 GiB (90%)\nColor primaries : BT.709\nTransfer characteristics : BT.709\nMatrix coefficients : BT.709\n\nAudio\nID : 661 (0x295)\nMenu ID : 1 (0x1)\nFormat : AC-3\nFormat/Info : Audio Coding 3\nMode extension : CM (complete main)\nFormat settings, Endianness : Big\nCodec ID : 6\nDuration : 1h 7mn\nBit rate mode : Constant\nBit rate : 384 Kbps\nChannel(s) : 2 channels\nChannel positions : Front: L R\nSampling rate : 48.0 KHz\nBit depth : 16 bits\nCompression mode : Lossy\nStream size : 185 MiB (5%)\nLanguage : English\n\nText\nID : 577 (0x241)-888\nMenu ID : 1 (0x1)\nFormat : Teletext Subtitle\nLanguage : English\n\nMenu\nID : 257 (0x101)\nMenu ID : 1 (0x1)\nDuration : 1h 7mn\nList : 513 (0x201) (AVC) / 661 (0x295) (AC-3, English) / 577 (0x241) ()\nLanguage : / English","torrent":{"xt":"urn:btih:32c5e18aed4f1f152d40b59b41e3c31991eaf424","amp;dn":"Downton.Abbey.S04E01.1080i.HDTV.H.264.DD2.0-CtrlHD+%5BPublicHD%5D","amp;tr":["udp%3A%2F%2Ftracker.openbittorrent.com%3A80","udp%3A%2F%2Fopen.demonii.com%3A1337","udp%3A%2F%2Ftracker.coppersurfer.tk%3A6969","udp%3A%2F%2Fexodus.desync.com%3A6969"],"infoHash":"32c5e18aed4f1f152d40b59b41e3c31991eaf424","infoHashBuffer":{"type":"Buffer","data":[50,197,225,138,237,79,31,21,45,64,181,155,65,227,195,25,145,234,244,36]},"announce":[],"urlList":[]}}